<svg width="82" height="48" viewBox="0 0 82 48" fill="none" xmlns="http://www.w3.org/2000/svg">
<path d="M70.0748 0.763311C67.7873 1.90707 67.4061 3.24145 67.5014 9.77038C67.6443 15.3462 67.5967 15.5368 66.5959 15.8227C65.3092 16.1563 65.5475 17.3001 66.9295 17.4907C67.7397 17.586 67.9779 18.1103 68.2162 20.1118C68.5975 23.1142 69.4076 25.6876 69.9319 25.6876C70.885 25.6876 71.2662 24.4009 70.885 22.3517C70.0272 18.1103 70.2178 17.1571 72.0764 16.2993C74.2209 15.2985 74.2209 14.536 72.1241 14.9173C71.2186 15.1079 70.3608 15.0126 70.2178 14.7743C70.0748 14.536 69.6936 12.2485 69.4553 9.67506C69.0264 5.43364 69.0264 4.86176 69.8365 3.81332C71.3615 1.7641 72.1241 1.52581 73.4108 2.71723C74.6975 3.90864 75.1741 4.05161 75.1741 3.09848C75.1741 2.24066 72.9819 -0.0468464 72.2194 0.000808716C71.8858 0.000808716 70.9326 0.334404 70.0748 0.763311Z" fill="black"/>
<path d="M21.1792 1.66878C20.9885 1.8594 20.9409 2.43128 21.0839 3.00316C21.8464 7.0063 21.8464 7.10161 20.5596 7.10161C19.0346 7.10161 19.1299 8.67427 20.7026 8.91255C21.9893 9.10318 22.3229 10.7712 22.5612 18.6821C22.7042 25.2587 22.8948 26.0689 24.0386 25.1634C24.6104 24.6868 24.7057 23.2095 24.5628 16.7282L24.4198 8.8649L26.2307 8.34068C28.7565 7.62583 28.6612 6.91098 25.9925 6.72036C23.8003 6.57739 23.7526 6.52973 23.419 4.8141C23.276 3.86097 23.0378 2.66956 22.8948 2.193C22.7042 1.38284 21.751 1.0969 21.1792 1.66878Z" fill="black"/>
<path d="M77.3664 1.81176C77.1758 2.0977 77.1758 3.38442 77.3664 4.7188C77.6047 6.67271 77.5571 7.10162 76.9375 7.10162C76.5086 7.10162 75.6031 7.3399 74.8406 7.62584C73.7922 8.00709 73.6969 8.19772 74.2211 8.53131C74.6024 8.81725 75.6031 9.00788 76.461 9.00788C77.8907 9.00788 77.9383 9.10319 78.3196 11.486C78.5578 12.868 78.7485 16.4899 78.7485 19.4923C78.7485 24.0196 78.8914 24.9728 79.4633 24.9728C80.0828 24.9728 80.1782 23.7337 80.1782 16.8712C80.1782 9.43678 80.2258 8.7696 81.036 8.62663C82.1797 8.38834 81.8461 6.911 80.6071 6.72037C79.8446 6.62506 79.5586 6.05318 79.1774 4.14692C78.7485 1.7641 77.986 0.810972 77.3664 1.81176Z" fill="black"/>
<path d="M4.30895 2.8602C3.35582 3.14614 2.498 3.86098 2.02144 4.7188C1.02066 6.67271 1.11597 6.81568 2.64097 5.67193C3.35582 5.14771 4.59489 4.62349 5.30973 4.57583C7.35896 4.43286 8.12146 7.00631 7.78787 12.6298C7.50193 17.9196 7.21599 18.6821 6.07224 18.0626C3.02223 16.4423 -1.17154 19.5399 0.305809 22.304C1.21128 23.9243 3.26051 24.8298 6.40583 25.0204C8.97928 25.1634 9.40819 25.0681 9.40819 24.3532C9.40819 23.9243 9.5035 20.0642 9.64647 15.8227C9.93241 7.3399 9.45584 4.19458 7.83552 3.05082C6.69177 2.24066 6.45349 2.24066 4.30895 2.8602ZM5.97692 20.0642C6.21521 20.3978 6.5488 21.1126 6.64411 21.6368C6.73943 22.3993 6.50114 22.6376 5.26208 22.7329C2.59332 23.0189 0.925343 21.4939 2.35504 20.0642C3.11754 19.3017 5.35739 19.3493 5.97692 20.0642Z" fill="black"/>
<path d="M58.6374 2.86019C57.6843 3.14613 56.8265 3.86098 56.3499 4.71879C55.3491 6.6727 55.4445 6.81567 56.9695 5.67192C57.6843 5.1477 58.9234 4.62348 59.6382 4.57582C61.8304 4.43285 62.45 6.86333 62.021 14.393C61.8304 17.729 61.5445 20.5884 61.3539 20.6837C61.1632 20.8267 60.3531 20.5884 59.6382 20.2071C57.7796 19.254 56.7788 19.3017 55.6351 20.4454C54.3007 21.7798 54.4437 22.447 56.1593 23.7337C58.1609 25.2111 63.7367 25.6876 63.7367 24.3532C63.7367 23.9243 63.832 19.9212 63.975 15.5368C64.2609 6.86333 63.8796 4.24223 62.164 3.05082C61.0203 2.24066 60.782 2.24066 58.6374 2.86019ZM59.4476 22.3517C60.782 23.4001 60.3054 23.5431 58.1132 22.7806C57.2554 22.4946 56.7312 22.0657 56.8742 21.8274C57.2554 21.1603 58.1609 21.3509 59.4476 22.3517Z" fill="black"/>
<path d="M39.9082 4.57581C37.2871 5.91019 35.9051 9.19848 35.8574 14.0118C35.8574 19.111 36.6676 21.4938 39.0027 23.0665C41.052 24.4009 41.7192 24.4962 43.4824 23.686C44.9121 23.0188 44.9121 21.5415 43.4824 21.7798C39.8606 22.3993 38.7645 21.4462 37.9543 16.8712C36.9059 11.2954 39.0504 6.10081 42.7199 5.38597C43.5778 5.19534 44.1496 4.81409 44.0543 4.52815C43.7684 3.67034 41.6715 3.67034 39.9082 4.57581Z" fill="black"/>
<path d="M46.8187 9.57976C47.4382 22.2087 47.7241 24.2579 48.9632 24.2579C49.2015 24.2579 49.3444 21.4939 49.3444 17.9196C49.2491 10.6759 49.5351 9.67507 52.3945 7.05396C53.4906 6.05318 54.2531 5.10005 54.1101 4.95708C53.6812 4.52818 50.7265 5.91021 49.7257 7.05396L48.8202 8.05475L47.9624 6.14849C47.4858 5.10005 46.9616 4.24224 46.8187 4.24224C46.6757 4.24224 46.6757 6.67271 46.8187 9.57976Z" fill="black"/>
<path d="M12.0769 5.10005C11.9339 5.33834 12.0293 9.24616 12.3152 13.7735C12.6488 19.7306 12.9824 22.304 13.5543 23.1142C13.9355 23.7337 14.4121 24.2579 14.6027 24.2579C14.7457 24.2579 14.7933 21.7798 14.7457 18.7774C14.5074 11.8673 15.2699 9.24616 18.034 7.05396C19.0824 6.24381 19.8449 5.43365 19.7019 5.33834C19.2254 4.86177 17.0808 5.67193 15.6511 6.911L14.2215 8.10241L13.7925 6.5774C13.4113 5.00474 12.6011 4.28989 12.0769 5.10005Z" fill="black"/>
<path d="M19.8406 44.2105C20.3215 44.7683 20.9563 45.0376 21.745 45.0376C22.5721 45.0376 23.2069 44.6914 23.6493 43.9797V44.8837H24.9574V31.611H23.6493V35.9006C23.2069 35.1696 22.5721 34.7849 21.745 34.7849C20.9563 34.7849 20.3215 35.0734 19.8406 35.6313C19.3597 36.1891 19.1289 37.0355 19.1289 38.1704V41.6521C19.1289 42.8063 19.3597 43.6526 19.8406 44.2105ZM23.2262 43.2679C22.9376 43.6719 22.5337 43.8642 21.9951 43.8642C21.4757 43.8642 21.091 43.6911 20.8217 43.3256C20.5524 42.9601 20.4369 42.3446 20.4369 41.4982V38.3243C20.4369 36.7469 20.9563 35.9583 21.9951 35.9583C23.0915 35.9583 23.6493 36.7662 23.6493 38.3435V41.5175C23.6493 42.2869 23.4955 42.8832 23.2262 43.2679Z" fill="black"/>
<path d="M28.3642 40.3056H32.9809V38.2858C32.9809 37.1317 32.7116 36.2661 32.173 35.6697C31.6344 35.0927 30.9226 34.7849 29.9993 34.7849C29.076 34.7849 28.345 35.0927 27.8256 35.6697C27.3063 36.2661 27.0562 37.1317 27.0562 38.2858V41.4982C27.0562 43.8642 28.0565 45.0376 30.057 45.0376C30.9803 45.0376 31.6921 44.7876 32.1922 44.249C32.6923 43.7296 32.9616 42.9409 32.9616 41.9022V41.8445H31.6728V41.9214C31.6728 43.2487 31.1342 43.9027 30.0955 43.9027C29.5376 43.9027 29.1144 43.7296 28.8067 43.3449C28.4989 42.9794 28.3642 42.3638 28.3642 41.479V40.3056ZM28.7874 36.5161C29.0567 36.1506 29.4799 35.9583 30.0185 35.9583C30.5571 35.9583 30.9611 36.1506 31.2496 36.4969C31.5382 36.8624 31.6921 37.4587 31.6921 38.2858V39.3053H28.3642V38.3243C28.3642 37.4779 28.4989 36.8816 28.7874 36.5161Z" fill="black"/>
<path d="M35.4854 44.2874C36.0048 44.7876 36.7165 45.0376 37.6206 45.0376C38.5439 45.0376 39.2749 44.7876 39.8135 44.2874C40.3521 43.7873 40.6214 43.0948 40.6214 42.1907C40.6214 41.479 40.4483 40.9211 40.1021 40.5172C39.7558 40.1325 39.2557 39.7862 38.5824 39.4977L37.3321 38.9783C36.8704 38.786 36.5627 38.5744 36.3895 38.3051C36.1972 38.055 36.1202 37.7472 36.1202 37.401C36.1202 36.9393 36.2549 36.5931 36.5242 36.3238C36.7935 36.0545 37.1782 35.9198 37.6591 35.9198C38.1785 35.9198 38.5824 36.0737 38.871 36.3815C39.1403 36.6892 39.2941 37.1317 39.2941 37.6895V37.8049H40.506V37.5549C40.506 36.7085 40.2367 36.0352 39.7366 35.5351C39.2364 35.035 38.5439 34.7849 37.6783 34.7849C36.7935 34.7849 36.101 35.035 35.5816 35.5351C35.0623 36.0352 34.8122 36.6892 34.8122 37.4972C34.8122 38.709 35.447 39.5746 36.7165 40.094L37.9669 40.6134C38.4478 40.825 38.794 41.0558 39.0056 41.2866C39.198 41.5367 39.3134 41.8637 39.3134 42.2869C39.3134 42.8255 39.1595 43.2295 38.8517 43.4988C38.5439 43.7681 38.1592 43.8835 37.6591 43.8835C37.1205 43.8835 36.6973 43.7488 36.3895 43.4603C36.0818 43.1717 35.9279 42.7486 35.9279 42.2099V42.0945H34.716V42.2099C34.716 43.0948 34.9661 43.7873 35.4854 44.2874Z" fill="black"/>
<path d="M42.5419 34.9388V44.8837H43.8499V34.9388H42.5419ZM42.5419 31.6302V33.3614H43.8691V31.6302H42.5419Z" fill="black"/>
<path d="M46.9511 47.3267C47.432 47.7884 48.1052 48 48.9901 48C49.9711 48 50.7021 47.6922 51.183 47.0766C51.6639 46.4611 51.914 45.6339 51.914 44.576V34.9388H50.6059V35.9006C50.1827 35.1696 49.5479 34.7849 48.7016 34.7849C47.9129 34.7849 47.2781 35.0734 46.7972 35.6313C46.3163 36.1891 46.0855 37.0355 46.0855 38.1512V40.9019C46.0855 42.0368 46.3163 42.8832 46.7972 43.441C47.2781 43.9989 47.9129 44.2682 48.7016 44.2682C49.5479 44.2682 50.1827 43.9219 50.6059 43.2295V44.6914C50.6059 45.4223 50.4713 45.9802 50.2212 46.3264C49.9519 46.6919 49.5479 46.865 48.9901 46.865C48.5284 46.865 48.163 46.7496 47.8937 46.4996C47.6244 46.2495 47.4705 45.9032 47.4512 45.4801H46.2009C46.2201 46.2687 46.4702 46.8843 46.9511 47.3267ZM50.1827 42.4985C49.8942 42.9024 49.4902 43.0948 48.9516 43.0948C48.4323 43.0948 48.0475 42.9217 47.7782 42.5562C47.5089 42.2099 47.3935 41.5944 47.3935 40.748V38.3051C47.3935 37.4587 47.5282 36.8624 47.7975 36.4969C48.0668 36.1506 48.4515 35.9583 48.9516 35.9583C50.0481 35.9583 50.6059 36.7469 50.6059 38.3243V40.748C50.6059 41.5175 50.452 42.1138 50.1827 42.4985Z" fill="black"/>
<path d="M54.1859 34.9388V44.8837H55.4939V37.7472C55.4939 37.1894 55.6286 36.7469 55.9171 36.4392C56.2057 36.1314 56.5904 35.9583 57.052 35.9583C57.5137 35.9583 57.8984 36.1122 58.187 36.4199C58.4563 36.7277 58.6102 37.1701 58.6102 37.7472V44.8837H59.9182V37.6895C59.9182 36.7854 59.6874 36.0737 59.2642 35.5543C58.8218 35.0542 58.2062 34.7849 57.4175 34.7849C56.9943 34.7849 56.6096 34.8811 56.2634 35.0734C55.9171 35.2658 55.6478 35.5351 55.4555 35.8429V34.9388H54.1859Z" fill="black"/>
</svg>
